<svg width="327" height="401" viewBox="0 0 327 401" fill="none" xmlns="http://www.w3.org/2000/svg">
<path d="M0 57.1511C0 25.5874 25.5962 0 57.1707 0H265.064C296.639 0 322.235 25.5874 322.235 57.1511V264.973C322.235 296.537 296.639 322.124 265.064 322.124H57.1707C25.5962 322.124 0 296.537 0 264.973V57.1511Z" fill="url(#paint0_linear_57_16)"/>
<path d="M160.009 264.973H117.432L126.746 198.47L123.198 186.056C116.989 165.662 110.632 145.415 104.127 125.317C97.9179 105.218 91.7088 84.676 85.4997 63.6905H130.737C133.103 73.1488 135.32 82.7548 137.39 92.5085C139.755 102.262 141.973 111.573 144.043 120.44C146.112 129.011 147.886 136.844 149.365 143.938C150.843 151.031 152.173 156.647 153.356 160.785C153.356 160.785 156.165 155.169 161.783 143.938C165.331 136.844 169.322 129.011 173.757 120.44C178.193 111.573 182.923 102.262 187.95 92.5085L202.142 63.6905H247.823C235.701 84.676 223.726 105.218 211.899 125.317C200.072 145.415 188.245 165.662 176.419 186.056L169.322 198.47L160.009 264.973Z" fill="white"/>
<path d="M180.798 264.972H138.222L147.535 198.469L143.987 186.055C137.778 165.661 131.421 145.414 124.916 125.315C118.707 105.217 112.498 84.6747 106.289 63.6893H151.527C153.892 73.1475 156.11 82.7535 158.179 92.5073C160.545 102.261 162.762 111.571 164.832 120.439C166.902 129.01 168.676 136.843 170.154 143.936C171.632 151.03 172.963 156.646 174.146 160.784C174.146 160.784 176.954 155.168 182.572 143.936C186.12 136.843 190.112 129.01 194.547 120.439C198.982 111.571 203.713 102.261 208.739 92.5073L222.931 63.6893H268.612C256.49 84.6747 244.515 105.217 232.688 125.315C220.862 145.414 209.035 165.661 197.208 186.055L190.112 198.469L180.798 264.972Z" fill="#222121"/>
<path d="M0.609063 357.863C0.609063 356.889 1.13692 356.401 2.19263 356.401H7.97873C10.2729 356.401 12.0392 357.365 13.2776 359.294L23.1444 374.484L32.9808 359.294C34.2395 357.365 36.0058 356.401 38.2796 356.401H44.0962C45.1316 356.401 45.6493 356.889 45.6493 357.863C45.6493 358.309 45.4869 358.786 45.162 359.294L28.8696 384.47V397.256C28.8696 398.047 28.5854 398.717 28.0169 399.265C27.4688 399.792 26.7988 400.056 26.007 400.056H20.2818C19.49 400.056 18.8099 399.792 18.2414 399.265C17.673 398.717 17.3888 398.047 17.3888 397.256V384.47L1.12677 359.294C0.781631 358.786 0.609063 358.309 0.609063 357.863Z" fill="#2B2B2B"/>
<path d="M93.7763 395.551C89.6346 399.184 83.544 401 75.5044 401C67.485 401 61.3944 399.184 57.2325 395.551C53.0705 391.898 50.9896 386.124 50.9896 378.229C50.9896 370.334 53.0705 364.57 57.2325 360.937C61.3944 357.305 67.485 355.488 75.5044 355.488C83.544 355.488 89.6346 357.305 93.7763 360.937C97.9382 364.57 100.019 370.334 100.019 378.229C100.019 386.124 97.9382 391.898 93.7763 395.551ZM85.4625 367.361C83.412 364.925 80.0926 363.708 75.5044 363.708C70.9364 363.708 67.617 364.925 65.5462 367.361C63.4957 369.796 62.4704 373.429 62.4704 378.259C62.4704 383.069 63.4957 386.692 65.5462 389.127C67.617 391.542 70.9364 392.75 75.5044 392.75C80.0926 392.75 83.412 391.542 85.4625 389.127C87.5131 386.692 88.5383 383.069 88.5383 378.259C88.5383 373.429 87.5131 369.796 85.4625 367.361Z" fill="#2B2B2B"/>
<path d="M110.049 382.795V359.294C110.049 358.502 110.323 357.822 110.871 357.254C111.44 356.686 112.14 356.401 112.973 356.401H118.667C119.439 356.401 120.109 356.686 120.677 357.254C121.246 357.822 121.53 358.502 121.53 359.294V382.856C121.53 385.84 122.18 388.062 123.479 389.523C124.799 390.984 126.829 391.715 129.57 391.715H134.442C137.183 391.715 139.203 390.984 140.502 389.523C141.822 388.062 142.482 385.84 142.482 382.856V359.294C142.482 358.502 142.756 357.822 143.304 357.254C143.873 356.686 144.553 356.401 145.344 356.401H151.009C151.841 356.401 152.542 356.686 153.11 357.254C153.678 357.822 153.963 358.502 153.963 359.294V382.795C153.963 388.356 152.328 392.669 149.06 395.733C145.791 398.778 141.02 400.3 134.747 400.3H129.265C122.972 400.3 118.19 398.778 114.922 395.733C111.673 392.669 110.049 388.356 110.049 382.795Z" fill="#2B2B2B"/>
<path d="M166.429 397.134V359.354C166.429 358.522 166.703 357.822 167.251 357.254C167.799 356.686 168.469 356.401 169.261 356.401H181.656C182.447 356.401 183.199 356.686 183.909 357.254C184.62 357.822 185.097 358.502 185.34 359.294L194.324 385.292L203.308 359.294C203.551 358.502 204.028 357.822 204.739 357.254C205.45 356.686 206.201 356.401 206.993 356.401H219.387C220.179 356.401 220.839 356.686 221.366 357.254C221.915 357.822 222.189 358.522 222.189 359.354V397.134C222.189 397.966 221.904 398.666 221.336 399.234C220.788 399.782 220.118 400.056 219.326 400.056H213.845C213.053 400.056 212.373 399.782 211.804 399.234C211.256 398.666 210.982 397.966 210.982 397.134V367.391L200.232 397.316C199.948 398.067 199.45 398.717 198.74 399.265C198.029 399.792 197.278 400.056 196.486 400.056H192.131C191.34 400.056 190.588 399.792 189.878 399.265C189.188 398.717 188.69 398.067 188.386 397.316L177.666 367.391V397.134C177.666 397.966 177.382 398.666 176.814 399.234C176.265 399.782 175.595 400.056 174.804 400.056H169.322C168.53 400.056 167.85 399.782 167.282 399.234C166.713 398.666 166.429 397.966 166.429 397.134Z" fill="#2B2B2B"/>
<path d="M235.295 397.134V359.233C235.295 358.441 235.579 357.771 236.147 357.223C236.716 356.675 237.396 356.401 238.188 356.401H273.3C274.092 356.401 274.762 356.686 275.31 357.254C275.878 357.822 276.163 358.502 276.163 359.294V362.155C276.163 362.947 275.878 363.627 275.31 364.195C274.762 364.743 274.092 365.017 273.3 365.017H246.775V373.876H269.615C270.407 373.876 271.077 374.16 271.625 374.728C272.194 375.276 272.478 375.946 272.478 376.737V379.599C272.478 380.39 272.194 381.07 271.625 381.638C271.077 382.186 270.407 382.46 269.615 382.46H246.775V391.441H273.239C274.011 391.441 274.67 391.715 275.219 392.263C275.767 392.811 276.041 393.481 276.041 394.272V397.195C276.041 397.986 275.757 398.666 275.188 399.234C274.62 399.782 273.94 400.056 273.148 400.056H238.188C237.396 400.056 236.716 399.782 236.147 399.234C235.579 398.666 235.295 397.966 235.295 397.134Z" fill="#2B2B2B"/>
<path d="M286.132 397.134V359.233C286.132 358.441 286.416 357.771 286.985 357.223C287.553 356.675 288.233 356.401 289.025 356.401H324.137C324.929 356.401 325.599 356.686 326.147 357.254C326.716 357.822 327 358.502 327 359.294V362.155C327 362.947 326.716 363.627 326.147 364.195C325.599 364.743 324.929 365.017 324.137 365.017H297.613V373.876H320.453C321.244 373.876 321.914 374.16 322.462 374.728C323.031 375.276 323.315 375.946 323.315 376.737V379.599C323.315 380.39 323.031 381.07 322.462 381.638C321.914 382.186 321.244 382.46 320.453 382.46H297.613V391.441H324.076C324.848 391.441 325.508 391.715 326.056 392.263C326.604 392.811 326.878 393.481 326.878 394.272V397.195C326.878 397.986 326.594 398.666 326.025 399.234C325.457 399.782 324.777 400.056 323.985 400.056H289.025C288.233 400.056 287.553 399.782 286.985 399.234C286.416 398.666 286.132 397.966 286.132 397.134Z" fill="#2B2B2B"/>
<defs>
<linearGradient id="paint0_linear_57_16" x1="-229.427" y1="-223.137" x2="713.703" y2="505.068" gradientUnits="userSpaceOnUse">
<stop stop-color="#CE0B0B"/>
<stop offset="1" stop-color="#6865FD"/>
</linearGradient>
</defs>
</svg>
