<svg xmlns="http://www.w3.org/2000/svg" viewBox="0 0 64 64">
	<defs>
		<style>
			.cls-1 {
				fill: #606060;
			}
			.cls-2 {
				fill: #7c7c7c;
			}
			.cls-3 {
				fill: #222222;
			}
			.cls-4 {
				fill: none;
			}
		</style>
	</defs>
	<g id="Layer_2" data-name="Layer 2">
		<g id="Layer_2-2" data-name="Layer 2">
			<rect class="cls-1" x="7.16" y="6.81" width="50.8" height="50.84" rx="8.67" />
			<rect class="cls-2" x="2.87" y="2.26" width="59.38" height="59.44" rx="10.14" />
			<path
				class="cls-3"
				d="M22,31.12c-.7,0-1.19.6-1.19,1.54s.51,1.47,1.19,1.47,1.2-.55,1.2-1.47S22.73,31.12,22,31.12Z" />
			<path
				class="cls-3"
				d="M32.94,31.1c-.71,0-1.14.56-1.14,1.46S32.23,34,33,34s1.11-.57,1.11-1.54S33.65,31.1,32.94,31.1Z" />
			<path
				class="cls-3"
				d="M12,28.26v7.42H38.61V28.26Zm3.77,4H14.07v2.23h-.74V30.24h.74v1.4h1.37c.85,0,1.21-.32,1.21-.94s-.37-.88-1.21-.88H13.33v-.6h2.42c1.08,0,1.7.51,1.7,1.47a1.54,1.54,0,0,1-1.54,1.55Zm4.11-1c-.93,0-1.28.31-1.28,1.35v1.9H17.9V30.64h.63v.71a1.29,1.29,0,0,1,1.33-.8ZM22,34.64a1.82,1.82,0,0,1-1.87-1.78,2.35,2.35,0,0,1,0-.26,1.87,1.87,0,0,1,3.71-.48,1.93,1.93,0,0,1,0,.48,1.82,1.82,0,0,1-1.59,2Zm8.19-.18h-.64V32c0-.57-.2-.85-.74-.85a1,1,0,0,0-1,.87v2.49h-.65V32c0-.6-.24-.85-.72-.85a1,1,0,0,0-1,1v2.38h-.71V30.64h.62v.56a1.44,1.44,0,0,1,1.27-.65,1,1,0,0,1,1,.65,1.52,1.52,0,0,1,1.22-.65c.83,0,1.29.38,1.29,1.11ZM33,34.6A1.28,1.28,0,0,1,31.89,34h0v1.25h-.68V30.61h.68v.51h0a1.12,1.12,0,0,1,1.13-.6c1.07,0,1.73.88,1.73,2.07a1.75,1.75,0,0,1-1.46,2Zm4-.1h-.36c-.75,0-1-.18-1-.83V31.2h-.57v-.56h.57V29.59h.68v1.05h.65v.56h-.63v2.44c0,.28,0,.32.49.32h.14Z" />
			<path
				class="cls-3"
				d="M39.15,28.31h3.31a2.37,2.37,0,0,1,0,4.73h-1.7v2.64H39.22Zm1.55,3.47h1.19c1,0,1.34-.34,1.34-1.11s-.43-1.11-1.34-1.11H40.7Z" />
			<path
				class="cls-3"
				d="M45.52,31c0-1.16.89-1.87,2.47-1.87s2.3.48,2.3,1.54V34a.5.5,0,0,0,.31.49v.19H49l-.11-.59a2.21,2.21,0,0,1-1.71.73,1.53,1.53,0,0,1-1.77-1.28,1.3,1.3,0,0,1,0-.34c0-1.26.82-1.55,2.67-1.83.59-.09.82-.17.82-.54s-.45-.6-.93-.6A.85.85,0,0,0,47,31Zm3.32,1c-.19.22-.93.3-1.19.33-.56.09-.85.32-.85.78s.28.7.88.7a1.16,1.16,0,0,0,1.16-1.16v-.65Z" />
			<polygon
				class="cls-3"
				points="50.77 29.16 52.25 33.9 51.8 35.65 53.3 35.65 55.09 29.14 53.58 29.14 53.03 31.18 52.36 29.16 50.77 29.16" />
			<path
				class="cls-3"
				d="M40.16,27.69h-.47v-1h0a.39.39,0,1,1,.42-.42V27l.33-1,.35,1V25.94h.37v1.75h-.43l-.28-.76Zm-.54-1.54a.14.14,0,0,0-.14.12.14.14,0,0,0,.14.14h0a.14.14,0,0,0,.12-.14.11.11,0,0,0-.09-.06Z" />
			<path
				class="cls-3"
				d="M42.88,27.32v-.54h-.39a.15.15,0,0,0-.15.12h-.42c0-.63.18-.91.63-.91H43a.53.53,0,0,0,.25,0v.34a.34.34,0,0,1-.2,0,3.84,3.84,0,0,1-.48,0,.2.2,0,0,0-.23.17s0,0,0,.05a.19.19,0,0,1,.15,0h.76v.77c0,.28-.22.45-.59.45s-.6-.16-.6-.45a.36.36,0,0,1,.35-.36.37.37,0,0,1,.37.36.33.33,0,0,1,0,.14A.13.13,0,0,0,42.88,27.32Zm-.47.12a.12.12,0,0,0,.13-.12h0a.13.13,0,0,0-.13-.11.1.1,0,0,0-.1.11.09.09,0,0,0,.1,0Z" />
			<path
				class="cls-3"
				d="M42.8,24.86a.29.29,0,0,1,.28.28h0a.67.67,0,0,1,0,.2,1.33,1.33,0,0,0,.37-.2l.14.23a2.87,2.87,0,0,1-.9.33l-.09-.23c.08,0,.14,0,.14-.1a.25.25,0,0,1-.16-.33.27.27,0,0,1,.27-.18Zm0,.34a.08.08,0,0,0,.08-.07" />
			<path
				class="cls-3"
				d="M45.77,26.55c0-.19-.21-.33-.44-.33s-.43.14-.43.28h-.37c0-.34.35-.57.82-.57s.79.22.79.57v1.19H44.79v-.77a.41.41,0,0,1,.4-.43h0a.4.4,0,0,1,.41.4.39.39,0,0,1-.39.38h-.08v.13h.64Zm-.44.34a.12.12,0,1,0-.24,0,.12.12,0,1,0,.24,0Z" />
			<path
				class="cls-3"
				d="M47.43,26.72h-.07a.39.39,0,0,1-.39-.39.41.41,0,0,1,.4-.39.4.4,0,0,1,.42.36V27l.54.33v-1.4h.35v1.75h-.47l-.45-.28a.46.46,0,0,1-.43.3.41.41,0,0,1-.41-.41.4.4,0,0,1,.37-.4h.14Zm-.1.72a.13.13,0,0,0,.13-.14.13.13,0,0,0-.13-.13.13.13,0,0,0-.14.13A.14.14,0,0,0,47.33,27.44Zm0-1.23a.12.12,0,0,0-.14.1v0a.12.12,0,0,0,.1.14h0a.16.16,0,0,0,.12-.14.13.13,0,0,0-.09-.12Z" />
			<path
				class="cls-3"
				d="M50,25.94v1h0a.39.39,0,0,1,.46.3.39.39,0,0,1-.3.46H50a.4.4,0,0,1-.42-.36.25.25,0,0,1,0-.08V25.94Zm0,1.55a.14.14,0,0,0,.14-.12.12.12,0,0,0-.12-.13h0a.12.12,0,0,0-.12.13A.12.12,0,0,0,50,27.49Z" />
			<path
				class="cls-3"
				d="M52,27.69h-.48v-1h0a.4.4,0,0,1-.39-.39.42.42,0,0,1,.42-.39h0a.4.4,0,0,1,.42.36V27l.32-1,.36,1V25.94H53v1.75h-.46l-.28-.76Zm-.56-1.54a.13.13,0,0,0-.12.12.14.14,0,0,0,.12.14.14.14,0,0,0,.14-.14h0a.11.11,0,0,0-.14-.06Z" />
			<path
				class="cls-3"
				d="M54.2,25.94a.4.4,0,0,1,.39.39.41.41,0,0,1-.41.39.31.31,0,0,0,.19,0h.18V27a.38.38,0,0,0-.34.34h.61V25.91h.37v1.75H53.78A1,1,0,0,1,54,27h0A.57.57,0,0,1,54,25.94Zm0,.51a.12.12,0,1,0-.12-.12.12.12,0,0,0,.12.12Z" />
			<path
				class="cls-3"
				d="M55.4,25.28h-.24v.11a.28.28,0,0,1-.27.28.28.28,0,0,1-.27-.28h0c0-.23.29-.37.69-.37Zm-.47.23a.14.14,0,0,0,0-.09.11.11,0,0,0,0-.08s-.1,0-.1.08a.08.08,0,0,0,.06.09Z" />
			<path class="cls-3" d="M57.35,24.23V39.68H9.54V24.23H57.43m.43-.43H9.11V40.17H57.78V23.83Z" />
			<rect class="cls-4" width="64" height="64" />
		</g>
	</g>
</svg>
