<svg xmlns="http://www.w3.org/2000/svg" viewBox="0 0 64 64">
	<defs>
		<style>
			.cls-1 {
				fill: #777777;
			}
			.cls-2 {
				fill: none;
			}
		</style>
	</defs>
	<g id="Layer_2" data-name="Layer 2">
		<g id="Layer_1-2" data-name="Layer 1">
			<path
				id="Path_64866"
				data-name="Path 64866"
				class="cls-1"
				d="M17,51.92a.74.74,0,0,1-.06.36.42.42,0,0,1-.16.21,1.06,1.06,0,0,1-.25.09l-.3,0h-.55l-1-3.05L13.69,52.6h-.46l-.29,0a.92.92,0,0,1-.23-.09.53.53,0,0,1-.16-.2.92.92,0,0,1-.05-.37V49.74h-.12a1.12,1.12,0,0,1-.4-.07.92.92,0,0,1-.33-.19,1,1,0,0,1-.22-.27.76.76,0,0,1-.08-.33.77.77,0,0,1,.08-.34,1,1,0,0,1,.22-.27,1.08,1.08,0,0,1,.34-.21A1.41,1.41,0,0,1,12.4,48a1.35,1.35,0,0,1,.82.25.85.85,0,0,1,.3.68v1c0,.11,0,.22,0,.33l0,.4-.05.5h0a2.29,2.29,0,0,1,.07-.28l.06-.27c0-.15.08-.32.13-.49s.09-.32.13-.44l.55-1.63h.77l.55,1.66.14.46c0,.16.09.32.13.48l.06.27.06.27h0l-.05-.5c0-.14,0-.28,0-.4s0-.25,0-.33V48.07h1Zm-4.33-3a.27.27,0,0,0-.09-.21.39.39,0,0,0-.48,0,.28.28,0,0,0-.1.21.32.32,0,0,0,.1.22.39.39,0,0,0,.48,0A.31.31,0,0,0,12.71,48.89Z" />
			<path
				id="Path_64867"
				data-name="Path 64867"
				class="cls-1"
				d="M23,48.45a1.18,1.18,0,0,1-.49.42,1.35,1.35,0,0,1-.6.13.76.76,0,0,1-.3,0l-.31-.1-.31-.1a1.41,1.41,0,0,0-.35,0,.73.73,0,0,0-.43.11A.58.58,0,0,0,20,49l.49,0a4.4,4.4,0,0,1,.8.11,2.1,2.1,0,0,1,.89.36.87.87,0,0,1,.3.69v1.51a1,1,0,0,1-.08.38.8.8,0,0,1-.23.29,1,1,0,0,1-.35.2,1.47,1.47,0,0,1-.46.07,1.16,1.16,0,0,1-.42-.07,1.25,1.25,0,0,1-.34-.19.89.89,0,0,1-.23-.28.85.85,0,0,1-.08-.35.72.72,0,0,1,.08-.32,1,1,0,0,1,.22-.28,1.35,1.35,0,0,1,.33-.19,1.34,1.34,0,0,1,.4-.06h.13v-.69c0-.16-.1-.29-.31-.39a2.58,2.58,0,0,0-.82-.19c-.3,0-.57,0-.8,0h-.76a2.15,2.15,0,0,1,.18-.61,1.67,1.67,0,0,1,.92-.91,1.8,1.8,0,0,1,.76-.14A1.58,1.58,0,0,1,21,48l.31.08.27.09a.85.85,0,0,0,.23,0,.48.48,0,0,0,.24-.07,1.12,1.12,0,0,0,.2-.18Zm-1.34,3.32a.26.26,0,0,0-.1-.2.41.41,0,0,0-.24-.08.35.35,0,0,0-.24.08.25.25,0,0,0-.09.2A.27.27,0,0,0,21,52a.36.36,0,0,0,.24.09.34.34,0,0,0,.24-.09.25.25,0,0,0,.1-.21Z" />
			<path
				id="Path_64868"
				data-name="Path 64868"
				class="cls-1"
				d="M23.3,45.5a1.69,1.69,0,0,1-.32.77,2.36,2.36,0,0,1-.62.6,3.27,3.27,0,0,1-.86.42,5.3,5.3,0,0,1-1.05.22l-.58-.29A1.5,1.5,0,0,0,20.2,47a1.34,1.34,0,0,0,.2-.21,1.14,1.14,0,0,1-.32-.07.82.82,0,0,1-.25-.16.65.65,0,0,1-.16-.21.58.58,0,0,1-.06-.26.64.64,0,0,1,.07-.27.84.84,0,0,1,.18-.24,1.18,1.18,0,0,1,.29-.16,1.32,1.32,0,0,1,.39-.06,1.39,1.39,0,0,1,.4.06.9.9,0,0,1,.3.17.83.83,0,0,1,.19.26.77.77,0,0,1,.06.3.66.66,0,0,1,0,.28,1.33,1.33,0,0,1-.1.24,1.58,1.58,0,0,0,.36-.2,1.43,1.43,0,0,0,.32-.28,1.24,1.24,0,0,0,.23-.32.83.83,0,0,0,.13-.34Zm-2.51.56a.23.23,0,0,0-.08-.17.25.25,0,0,0-.18-.06c-.18,0-.27.08-.27.23a.18.18,0,0,0,.07.17.3.3,0,0,0,.2.06.31.31,0,0,0,.19-.06A.24.24,0,0,0,20.79,46.06Z" />
			<path
				id="Path_64869"
				data-name="Path 64869"
				class="cls-1"
				d="M28.94,51.44a1.88,1.88,0,0,1-.07.53.84.84,0,0,1-.22.36,1.06,1.06,0,0,1-.43.2,3.14,3.14,0,0,1-.68.07H25V50.44a.86.86,0,0,1,.31-.68,1.26,1.26,0,0,1,.82-.26,1.15,1.15,0,0,1,.41.08,1,1,0,0,1,.34.2,1,1,0,0,1,.23.28.77.77,0,0,1,.08.34.56.56,0,0,1-.08.33.93.93,0,0,1-.22.27,1.06,1.06,0,0,1-.33.18,1.4,1.4,0,0,1-.4.07H26v.64h1.17l.35,0a.65.65,0,0,0,.22-.08.3.3,0,0,0,.13-.16.74.74,0,0,0,0-.26V49.56a.72.72,0,0,0-.29-.61,1.25,1.25,0,0,0-.8-.22,1.84,1.84,0,0,0-.41.05,1.14,1.14,0,0,0-.36.15,1.37,1.37,0,0,0-.29.2,1,1,0,0,0-.18.31H24.51a1.88,1.88,0,0,1,.32-.65,2.12,2.12,0,0,1,.53-.46,2.57,2.57,0,0,1,.7-.26A4,4,0,0,1,26.9,48a3.31,3.31,0,0,1,.83.1,2.18,2.18,0,0,1,.64.29,1.47,1.47,0,0,1,.42.44,1.12,1.12,0,0,1,.15.56Zm-2.48-1a.28.28,0,0,0-.1-.21.34.34,0,0,0-.24-.09.38.38,0,0,0-.24.09.28.28,0,0,0-.1.21.3.3,0,0,0,.1.2.38.38,0,0,0,.24.09.34.34,0,0,0,.24-.09.26.26,0,0,0,.1-.2Z" />
			<path
				id="Path_64870"
				data-name="Path 64870"
				class="cls-1"
				d="M35.64,51.94a.65.65,0,0,1-.2.51,1,1,0,0,1-.59.15h-.37a1.58,1.58,0,0,0-.2-.36A2,2,0,0,0,34,51.9a2.79,2.79,0,0,0-.38-.3,2.49,2.49,0,0,0-.43-.22v.42a.76.76,0,0,1-.08.33.63.63,0,0,1-.2.26.92.92,0,0,1-.32.18,1.23,1.23,0,0,1-.42.07,1.77,1.77,0,0,1-.46-.07,1.07,1.07,0,0,1-.38-.2.83.83,0,0,1-.27-.32.82.82,0,0,1-.1-.44.81.81,0,0,1,.09-.4,1,1,0,0,1,.26-.32,1.33,1.33,0,0,1,.38-.23,1.89,1.89,0,0,1,.48-.13v-.8H32a1.09,1.09,0,0,1-.4-.07.92.92,0,0,1-.33-.19.73.73,0,0,1-.22-.27.64.64,0,0,1-.08-.33.81.81,0,0,1,.08-.34.88.88,0,0,1,.22-.25,1.2,1.2,0,0,1,.34-.21,1.54,1.54,0,0,1,.42-.07,1.47,1.47,0,0,1,.46.07,1.08,1.08,0,0,1,.35.19.92.92,0,0,1,.23.29,1,1,0,0,1,.08.38v1.64l.36.11c.13,0,.26.1.38.15a2.82,2.82,0,0,1,.38.21,2.51,2.51,0,0,1,.32.25V48.06h1Zm-3.5-.71a.51.51,0,0,0-.33.13.37.37,0,0,0-.13.27.25.25,0,0,0,.08.21.32.32,0,0,0,.19.07.23.23,0,0,0,.14,0,.2.2,0,0,0,0-.16Zm.21-2.34a.24.24,0,0,0-.09-.21.39.39,0,0,0-.48,0,.27.27,0,0,0-.09.21.31.31,0,0,0,.09.22.39.39,0,0,0,.48,0,.27.27,0,0,0,.09-.22Z" />
			<path
				id="Path_64871"
				data-name="Path 64871"
				class="cls-1"
				d="M40.38,51.77a.62.62,0,0,1-.08.35,1,1,0,0,1-.22.28,1.63,1.63,0,0,1-.34.19,1.23,1.23,0,0,1-.42.07,1.39,1.39,0,0,1-.46-.07,1.07,1.07,0,0,1-.36-.2.84.84,0,0,1-.22-.3.77.77,0,0,1-.08-.37V48.07h1v2.85h.12a1.4,1.4,0,0,1,.4.07,1.09,1.09,0,0,1,.33.19,1.18,1.18,0,0,1,.23.27A.72.72,0,0,1,40.38,51.77Zm-.7,0a.29.29,0,0,0-.09-.2.44.44,0,0,0-.25-.08.35.35,0,0,0-.24.08.25.25,0,0,0-.09.2.27.27,0,0,0,.09.21.36.36,0,0,0,.24.09.38.38,0,0,0,.25-.09A.27.27,0,0,0,39.68,51.77Z" />
			<path
				id="Path_64872"
				data-name="Path 64872"
				class="cls-1"
				d="M47.5,51.92a1.09,1.09,0,0,1-.06.36.51.51,0,0,1-.17.21.92.92,0,0,1-.25.09l-.3,0h-.55l-1-3.05L44.14,52.6h-.46l-.29,0a.92.92,0,0,1-.23-.09.54.54,0,0,1-.16-.21,1.09,1.09,0,0,1-.06-.36V49.74h-.11a1.12,1.12,0,0,1-.4-.07.92.92,0,0,1-.33-.19.82.82,0,0,1-.22-.27.64.64,0,0,1-.08-.33.77.77,0,0,1,.08-.34,1,1,0,0,1,.22-.27,1.2,1.2,0,0,1,.34-.21,1.42,1.42,0,0,1,.42-.07,1.3,1.3,0,0,1,.81.25.82.82,0,0,1,.3.68v1a1.82,1.82,0,0,1,0,.33c0,.14,0,.27,0,.4l-.05.5h0L44,50.9c0-.09,0-.18.07-.27s.07-.32.12-.49.09-.32.13-.44l.56-1.63h.77l.56,1.66c0,.13.09.29.13.46s.09.32.13.48l.06.27c0,.09,0,.17.07.27h0l0-.5c0-.14,0-.28,0-.4s0-.25,0-.33V48.07h1Zm-4.34-3a.27.27,0,0,0-.09-.21.39.39,0,0,0-.48,0,.24.24,0,0,0-.09.21.27.27,0,0,0,.09.22.39.39,0,0,0,.48,0A.31.31,0,0,0,43.16,48.89Z" />
			<path
				id="Path_64873"
				data-name="Path 64873"
				class="cls-1"
				d="M53.53,51.46a1.68,1.68,0,0,1-.07.5.84.84,0,0,1-.22.36,1.26,1.26,0,0,1-.43.22,3.14,3.14,0,0,1-.68.07H49.54V51.08a.73.73,0,0,1,.06-.3.6.6,0,0,1,.34-.34.68.68,0,0,1,.2-.07l-.23,0a.9.9,0,0,1-.24-.12.69.69,0,0,1-.19-.19.47.47,0,0,1-.07-.29v-.79a.8.8,0,0,1,.08-.37.66.66,0,0,1,.23-.29,1.1,1.1,0,0,1,.35-.2,1.46,1.46,0,0,1,.46-.06,1.23,1.23,0,0,1,.42.07,1,1,0,0,1,.34.2.91.91,0,0,1,.23.28.76.76,0,0,1,.08.33.81.81,0,0,1-.08.34,1.13,1.13,0,0,1-.22.27,1,1,0,0,1-.34.19,1.29,1.29,0,0,1-.4.07c0,.14.17.21.49.21h.62v.74h-.58a.62.62,0,0,0-.4.1.39.39,0,0,0-.12.3v.76h1.19l.35,0a.63.63,0,0,0,.23-.08.3.3,0,0,0,.13-.16.74.74,0,0,0,0-.26V48.06h1ZM50.89,48.9a.27.27,0,0,0-.09-.21.36.36,0,0,0-.48,0,.27.27,0,0,0,0,.42.39.39,0,0,0,.48,0,.28.28,0,0,0,.1-.21Z" />
			<path
				id="Path_64874"
				data-name="Path 64874"
				class="cls-1"
				d="M54.26,45.33a.83.83,0,0,1-.16.39,1.16,1.16,0,0,1-.28.26,1.58,1.58,0,0,1-.35.16l-.36.1a.79.79,0,0,1,.19.22.55.55,0,0,1,.07.28.66.66,0,0,1-.07.3.91.91,0,0,1-.2.24,1.08,1.08,0,0,1-.3.16.92.92,0,0,1-.37.05,1,1,0,0,1-.64-.22.92.92,0,0,1-.22-.26.83.83,0,0,1,.22-1,1.64,1.64,0,0,1,.88-.33c.47-.07.72-.28.76-.62Zm-1.54,1.41a.28.28,0,0,0-.07-.17.25.25,0,0,0-.2-.06.31.31,0,0,0-.21.06.23.23,0,0,0,0,.32l0,0a.27.27,0,0,0,.21.07.26.26,0,0,0,.2-.07.21.21,0,0,0,.07-.17Z" />
			<path
				id="Path_64875"
				data-name="Path 64875"
				class="cls-1"
				d="M24.71,35a7.91,7.91,0,0,1-5.07,1.43h-4.2v7.06h-4.2V23.82h8.68a7.13,7.13,0,0,1,4.78,1.52A5.81,5.81,0,0,1,26.48,30,6,6,0,0,1,24.71,35Zm-3.22-7.07a3.5,3.5,0,0,0-2.25-.65h-3.8V33h3.8a3.28,3.28,0,0,0,2.25-.71,2.87,2.87,0,0,0,.81-2.23,2.72,2.72,0,0,0-.82-2.19Z" />
			<path
				id="Path_64876"
				data-name="Path 64876"
				class="cls-1"
				d="M34.57,32.1a6,6,0,0,0,1.57-.33A1.15,1.15,0,0,0,37,30.69a1.27,1.27,0,0,0-.65-1.23,4.14,4.14,0,0,0-1.9-.34,2.54,2.54,0,0,0-2,.67,2.68,2.68,0,0,0-.56,1.33H28.12A5.52,5.52,0,0,1,29.22,28c1-1.28,2.82-1.91,5.35-1.92a9.71,9.71,0,0,1,4.37,1,3.58,3.58,0,0,1,1.91,3.56v6.65q0,.69,0,1.68a2.08,2.08,0,0,0,.23,1,1.32,1.32,0,0,0,.58.44v.56H37.43a4,4,0,0,1-.24-.82,6.8,6.8,0,0,1-.11-.88,8.28,8.28,0,0,1-1.88,1.45,5.75,5.75,0,0,1-2.87.7A5,5,0,0,1,29,40.26a4,4,0,0,1-1.33-3.19,4.1,4.1,0,0,1,2.14-3.87,9.62,9.62,0,0,1,3.44-.93ZM37,33.87a4.35,4.35,0,0,1-.75.37,8,8,0,0,1-1.05.26l-.89.16a6,6,0,0,0-1.8.52,1.73,1.73,0,0,0-.92,1.61,1.65,1.65,0,0,0,.56,1.4,2.19,2.19,0,0,0,1.37.43,4.06,4.06,0,0,0,2.36-.72A3,3,0,0,0,37,35.28Z" />
			<path
				id="Path_64877"
				data-name="Path 64877"
				class="cls-1"
				d="M53.6,26.1H49.53l-1.48,5.42-1.7-5.42H42.08l4,12.72-1.24,4.59h4.07l1.34-4.93Z" />
			<path
				id="Path_64878"
				data-name="Path 64878"
				class="cls-1"
				d="M27.26,13.24a1.61,1.61,0,0,0-1.47.74,3.24,3.24,0,0,0-.46,1.77,2.91,2.91,0,0,0,.46,1.67,1.63,1.63,0,0,0,1.46.66,1.5,1.5,0,0,0,1.5-.79,3.7,3.7,0,0,0,.41-1.76,2.91,2.91,0,0,0-.3-1.42A1.64,1.64,0,0,0,27.26,13.24Z" />
			<path
				id="Path_64879"
				data-name="Path 64879"
				class="cls-1"
				d="M45.09,13.28a1.58,1.58,0,0,0-1.59,1.09,4,4,0,0,0-.23,1.49,2.75,2.75,0,0,0,.23,1.23,1.58,1.58,0,0,0,1.59,1,1.63,1.63,0,0,0,1.31-.62,2.86,2.86,0,0,0,.52-1.84,3.35,3.35,0,0,0-.23-1.29A1.59,1.59,0,0,0,45.09,13.28Z" />
			<path
				id="Path_64880"
				data-name="Path 64880"
				class="cls-1"
				d="M10.76,8.66v12.1h43.5V8.66Zm8.31,5.73a2.58,2.58,0,0,1-2,.75H14.19v3.62H13V11.87h1.23v2.28h2.44A2.5,2.5,0,0,0,18,13.82a1.54,1.54,0,0,0,.12-2.18,1.58,1.58,0,0,0-.34-.29,2.86,2.86,0,0,0-1.12-.18H13v-1H17a2.9,2.9,0,0,1,2,.65,2.3,2.3,0,0,1,.75,1.81A2.55,2.55,0,0,1,19.07,14.39Zm4.6-.89-.19,0H23.3A1.67,1.67,0,0,0,22,14a1.79,1.79,0,0,0-.45,1.18v3.6H20.43V12.5h1.06v1.09a2.51,2.51,0,0,1,.64-.77,1.65,1.65,0,0,1,1.17-.45h.11l.25,0ZM29.55,18a2.84,2.84,0,0,1-2.41,1A2.77,2.77,0,0,1,25,18.11a3.34,3.34,0,0,1-.8-2.34A3.66,3.66,0,0,1,25,13.25a2.89,2.89,0,0,1,2.26-.93,2.9,2.9,0,0,1,3.05,2.76,2,2,0,0,1,0,.42,3.88,3.88,0,0,1-.78,2.5Zm11.09.76H39.48V14.42a1,1,0,0,0-.33-.86,1.37,1.37,0,0,0-.81-.23,1.66,1.66,0,0,0-1.13.41,1.74,1.74,0,0,0-.47,1.39v3.64H35.6V14.68a2.1,2.1,0,0,0-.16-.93,1,1,0,0,0-.95-.44,1.69,1.69,0,0,0-1.15.46,2.18,2.18,0,0,0-.52,1.68v3.31H31.7V12.5h1.11v.89a3.76,3.76,0,0,1,.71-.67,2.33,2.33,0,0,1,1.25-.36,2.07,2.07,0,0,1,1.28.37,1.91,1.91,0,0,1,.5.63,2.36,2.36,0,0,1,.88-.75,2.43,2.43,0,0,1,1.12-.24,1.85,1.85,0,0,1,1.83.91,2.84,2.84,0,0,1,.26,1.32Zm6.28-.34a2.68,2.68,0,0,1-1.68.56A2.41,2.41,0,0,1,44,18.67a3,3,0,0,1-.67-.6V20H42.19V12.53h1.09v.83A2.92,2.92,0,0,1,44,12.7a2.48,2.48,0,0,1,1.33-.35,2.59,2.59,0,0,1,1.92.82,3.21,3.21,0,0,1,.79,2.33,3.46,3.46,0,0,1-1.14,2.93Zm4.85-5.06H50.7v4.09a.45.45,0,0,0,.24.44,1.09,1.09,0,0,0,.44.06h.17l.22,0v.84a2.79,2.79,0,0,1-.4.07,3.4,3.4,0,0,1-.45,0,1.24,1.24,0,0,1-1.06-.38,1.56,1.56,0,0,1-.28-1V13.36h-.9V12.5h.9V10.75H50.7V12.5h1.07Z" />
			<rect class="cls-2" width="64" height="64" />
			<path class="cls-1" d="M60.51,60.51h-57v-57h57Zm-55-2h53v-53h-53Z" />
		</g>
	</g>
</svg>
