<svg width="100%" height="100%" id="svg" viewBox="0 0 1440 490" xmlns="http://www.w3.org/2000/svg" class="transition duration-300 ease-in-out delay-150"><path d="M 0,500 C 0,500 0,100 0,100 C 35.303785916882475,110.5926254778641 70.60757183376495,121.18525095572821 132,110 C 193.39242816623505,98.81474904427179 280.8734985818227,65.85162165495127 338,68 C 395.1265014181773,70.14837834504873 421.8984338389444,107.40826242446667 466,124 C 510.1015661610556,140.59173757553333 571.5327660623997,136.51532864718212 629,134 C 686.4672339376003,131.48467135281788 739.9705019114565,130.5304229868048 788,122 C 836.0294980885435,113.46957701319519 878.5852262917745,97.36297940559871 940,102 C 1001.4147737082255,106.63702059440129 1081.6885929214454,132.01765939080036 1142,134 C 1202.3114070785546,135.98234060919964 1242.660402022444,114.5663830311999 1289,105 C 1335.339597977556,95.4336169688001 1387.669798988778,97.71680848440005 1440,100 C 1440,100 1440,500 1440,500 Z" stroke="none" stroke-width="0" fill="#ff0080" fill-opacity="0.265" class="transition-all duration-300 ease-in-out delay-150 path-0"></path><path d="M 0,500 C 0,500 0,200 0,200 C 39.89808854359353,191.92008879023308 79.79617708718706,183.84017758046613 138,182 C 196.20382291281294,180.15982241953387 272.7133801948453,184.5593784683685 326,194 C 379.2866198051547,203.4406215316315 409.3503021334319,217.92230854605992 467,210 C 524.6496978665681,202.07769145394008 609.8854112714268,171.75138734739178 667,169 C 724.1145887285732,166.24861265260822 753.1080527808608,191.0721420643729 798,205 C 842.8919472191392,218.9278579356271 903.6823776051301,221.9600443951165 952,224 C 1000.3176223948699,226.0399556048835 1036.162436798619,227.08768035516096 1090,224 C 1143.837563201381,220.91231964483904 1215.6678752003945,213.68923418423975 1277,209 C 1338.3321247996055,204.31076581576025 1389.1660623998027,202.15538290788012 1440,200 C 1440,200 1440,500 1440,500 Z" stroke="none" stroke-width="0" fill="#ff0080" fill-opacity="0.4" class="transition-all duration-300 ease-in-out delay-150 path-1"></path><path d="M 0,500 C 0,500 0,300 0,300 C 50.82693303736589,294.26587742015045 101.65386607473178,288.5317548403009 163,283 C 224.34613392526822,277.4682451596991 296.2114687384387,272.1388580589469 348,270 C 399.7885312615613,267.8611419410531 431.5002589715132,268.9128129239117 483,276 C 534.4997410284868,283.0871870760883 605.7874953755087,296.2098902454063 663,305 C 720.2125046244913,313.7901097545937 763.3497595264521,318.247626094463 806,320 C 848.6502404735479,321.752373905537 890.8134665186831,320.79960537674185 951,318 C 1011.1865334813169,315.20039462325815 1089.396374398816,310.5539523985695 1139,304 C 1188.603625601184,297.4460476014305 1209.6010358860526,288.9845850289802 1255,288 C 1300.3989641139474,287.0154149710198 1370.1994820569737,293.5077074855099 1440,300 C 1440,300 1440,500 1440,500 Z" stroke="none" stroke-width="0" fill="#ff0080" fill-opacity="0.53" class="transition-all duration-300 ease-in-out delay-150 path-2"></path><path d="M 0,500 C 0,500 0,400 0,400 C 39.574546799852016,403.3747687754347 79.14909359970403,406.7495375508694 138,404 C 196.85090640029597,401.2504624491306 274.97817240103586,392.37661857195707 336,395 C 397.02182759896414,397.62338142804293 440.93821679615246,411.74398816130224 487,416 C 533.0617832038475,420.25601183869776 581.2689604143544,414.64742878283386 640,400 C 698.7310395856456,385.35257121716614 767.9859415464299,361.66629670736216 815,363 C 862.0140584535701,364.33370329263784 886.787273399926,390.6873843877174 940,396 C 993.212726600074,401.3126156122826 1074.864964853866,385.58416574176846 1140,382 C 1205.135035146134,378.41583425823154 1253.7528671846098,386.975952645209 1301,392 C 1348.2471328153902,397.024047354791 1394.123566407695,398.5120236773955 1440,400 C 1440,400 1440,500 1440,500 Z" stroke="none" stroke-width="0" fill="#ff0080" fill-opacity="1" class="transition-all duration-300 ease-in-out delay-150 path-3"></path></svg>